<svg width="79" height="64" xmlns="http://www.w3.org/2000/svg" xmlns:xlink="http://www.w3.org/1999/xlink"><defs><path id="a" d="M0 .878h78.708V63.86H0z"/></defs><g fill="none" fill-rule="evenodd"><path fill="#1DBF73" d="M17.68 56L16 62l44.882-1.962L62 56zm-7.387-36.605a3.612 3.612 0 01-3.618 3.604 3.612 3.612 0 01-3.618-3.604 3.611 3.611 0 013.618-3.603 3.612 3.612 0 013.618 3.603m14.042-8.118a4.242 4.242 0 01-4.25-4.233 4.243 4.243 0 014.25-4.236 4.243 4.243 0 014.25 4.236 4.242 4.242 0 01-4.25 4.233m30.072-1.153a3.832 3.832 0 01-3.84-3.826 3.832 3.832 0 013.84-3.823c2.12 0 3.84 1.711 3.84 3.823a3.832 3.832 0 01-3.84 3.826M72.841 23.03a3.61 3.61 0 01-3.617-3.604 3.611 3.611 0 013.617-3.603 3.612 3.612 0 013.62 3.603 3.61 3.61 0 01-3.62 3.604"/><mask id="b" fill="#fff"><use xlink:href="#a"/></mask><path d="M72.629 22.043a2.872 2.872 0 01-2.873-2.863 2.87 2.87 0 012.873-2.86 2.87 2.87 0 012.874 2.86 2.872 2.872 0 01-2.874 2.863zM62.235 53.339h-45.76l-7.382-27.51 10.746 10.16a1.607 1.607 0 002.693-.943l2.927-21.506 12.49 22.627c.564 1.022 2.247 1.022 2.81 0l12.49-22.627 2.927 21.506a1.6 1.6 0 001.058 1.29 1.603 1.603 0 001.635-.348l10.746-10.16-7.38 27.51zM18.44 60.667l-1.109-4.135h44.048l-1.11 4.135H18.44zM3.205 19.18a2.87 2.87 0 012.874-2.86 2.87 2.87 0 012.873 2.86 2.87 2.87 0 01-2.873 2.863 2.872 2.872 0 01-2.874-2.863zM24.522 4.071a2.87 2.87 0 012.874 2.863 2.87 2.87 0 01-2.874 2.862 2.872 2.872 0 01-2.872-2.862 2.872 2.872 0 012.872-2.863zm29.662 0a2.872 2.872 0 012.874 2.863 2.872 2.872 0 01-2.874 2.862 2.872 2.872 0 01-2.872-2.862 2.872 2.872 0 012.872-2.863zm24.524 15.11c0-3.339-2.726-6.054-6.08-6.054-3.351 0-6.078 2.715-6.078 6.053 0 1.455.539 2.774 1.4 3.82l-9.017 8.524-2.58-18.951c2.282-.874 3.91-3.064 3.91-5.64 0-3.34-2.726-6.055-6.079-6.055-3.352 0-6.078 2.716-6.078 6.056 0 1.984.976 3.732 2.46 4.837L39.354 32.085 28.142 11.77c1.486-1.105 2.46-2.853 2.46-4.837 0-3.34-2.726-6.056-6.08-6.056-3.351 0-6.078 2.716-6.078 6.056 0 2.575 1.63 4.765 3.911 5.639l-2.58 18.951L10.758 23c.861-1.045 1.4-2.364 1.4-3.819 0-3.338-2.727-6.053-6.079-6.053-3.351 0-6.08 2.715-6.08 6.053 0 3.177 2.477 5.76 5.606 6.008L15.66 62.675c.188.7.824 1.185 1.55 1.185H61.5a1.6 1.6 0 001.548-1.185l10.057-37.487c3.127-.247 5.603-2.83 5.603-6.008z" fill="#565656" mask="url(#b)"/></g></svg>