<svg width="42" height="42" xmlns="http://www.w3.org/2000/svg"><g fill="none" fill-rule="evenodd"><path fill="#FFF" d="M0 42h42V0H0z"/><path fill="#FFF" d="M2.273 2.087l-.808 34.73H7.12l.808 3.231h6.461v-3.23h12.923v3.23h7.27V36.01h5.654V2.087z"/><path fill="#DEE0E2" d="M2.789 4.428h34.78v30.86h1.616V2.812H2.79z"/><path d="M27.311 19.048a7.269 7.269 0 01-7.269 7.27 7.269 7.269 0 01-7.269-7.27 7.269 7.269 0 017.27-7.269 7.269 7.269 0 017.268 7.27" fill="#F4A1A1"/><path d="M22.465 18.644a2.019 2.019 0 11-4.038.001 2.019 2.019 0 014.038 0" fill="#FFF"/><path fill="#DEE0E2" d="M7.861 8.998h23.126v21.719h1.616V7.382H7.86z"/><path d="M21.04 19.86c-.426.426-1.175.427-1.607.006-.004-.003-.008-.004-.01-.007-.004-.003-.005-.008-.008-.011a1.136 1.136 0 01.006-1.608c.217-.216.504-.336.81-.336a1.146 1.146 0 01.81 1.955m1.68-4.728l-.687.687-.414.415c-1.21-.57-2.71-.337-3.626.58-.29.289-.514.626-.67.992a3.148 3.148 0 00-.257 1.244c0 .552.154 1.077.418 1.545.14.248.302.486.51.693.202.203.434.362.676.5.472.27 1.002.426 1.56.426.443 0 .869-.094 1.263-.266.358-.156.69-.376.975-.66a3.175 3.175 0 00.586-3.634l.406-.406.689-.688a1.01 1.01 0 00-1.428-1.428" fill="#4D535B"/><path d="M39.185 35.287H2.789V2.813h36.396v32.474zm-10.852 3.45h5.284v-1.43h-5.284v1.43zm-19.977 0h5.284v-1.43H8.356v1.43zM40.194.794H1.78a1.01 1.01 0 00-1.01 1.01v34.493c0 .556.453 1.01 1.01 1.01h4.558v2.44c0 .556.453 1.01 1.01 1.01h7.302a1.01 1.01 0 001.01-1.01v-2.44h10.655v2.44c0 .556.453 1.01 1.01 1.01h7.303a1.01 1.01 0 001.01-1.01v-2.44h4.557c.557 0 1.01-.454 1.01-1.01V1.804a1.01 1.01 0 00-1.01-1.01z" fill="#4D535B"/><path d="M24.429 23.246a5.901 5.901 0 01-4.197 1.738 5.897 5.897 0 01-4.198-1.738c-2.038-2.039-2.278-5.204-.723-7.512a5.901 5.901 0 016.183-2.48 5.899 5.899 0 014.524 4.508 5.932 5.932 0 01-1.59 5.484m-4.196-12.15a7.903 7.903 0 00-5.625 2.33 7.967 7.967 0 00-.743.87 7.936 7.936 0 00-1.033 7.657 7.92 7.92 0 004.52 4.507 7.92 7.92 0 002.88.543 7.878 7.878 0 004.752-1.586c.305-.228.6-.47.874-.743a7.9 7.9 0 002.325-5.624 7.901 7.901 0 00-2.325-5.625 7.905 7.905 0 00-5.625-2.33" fill="#4D535B"/><path d="M7.861 8.998V7.382h24.742v23.335H7.86V8.997zm-1.01 23.738h26.761c.557 0 1.01-.453 1.01-1.01V26.89h1.218a1.01 1.01 0 001.01-1.01v-2.908a1.01 1.01 0 00-1.01-1.01h-1.22v-5.825h1.22c.556 0 1.01-.453 1.01-1.01v-2.908c0-.556-.454-1.01-1.01-1.01h-1.22V6.373a1.01 1.01 0 00-1.009-1.01H6.852c-.557 0-1.01.453-1.01 1.01v25.353c0 .557.453 1.01 1.01 1.01z" fill="#4D535B"/></g></svg>