<svg xmlns="http://www.w3.org/2000/svg" width="300" height="100" viewBox="0 0 300 100"><g fill="#E9E9E9"><path d="M46.9 0H2.7C1.2 0 0 1.2 0 2.7v31.7C0 35.8 1.2 37 2.7 37H47c1.5 0 2.7-1.2 2.7-2.7V2.7C49.6 1.2 48.4 0 46.9 0zM2 34.3V2.7c0-.4.3-.7.7-.7H47c.4 0 .7.3.7.7v19.5L40 11.3c-.2-.3-.5-.4-.8-.4-.3 0-.6.2-.8.5l-6.9 10.8-5.1-6.9c-.2-.3-.5-.4-.8-.4-.3 0-.6.2-.8.4L10.4 35H2.7c-.4 0-.7-.3-.7-.7zm44.9.7h-34l12.7-17.4 5.1 6.9c.2.3.5.4.8.4.3 0 .6-.2.8-.5l6.8-10.8 8.3 12v8.6c.2.5-.1.8-.5.8z"/><path d="M13 19.6c3 0 5.4-2.4 5.4-5.4 0-3-2.4-5.4-5.4-5.4-3 0-5.4 2.4-5.4 5.4-.1 3 2.4 5.4 5.4 5.4zm0-8.9c1.9 0 3.4 1.5 3.4 3.4s-1.5 3.4-3.4 3.4-3.4-1.5-3.4-3.4c-.1-1.8 1.5-3.4 3.4-3.4z"/></g><g fill="#E9E9E9"><path d="M100.6 21.8H68.5c-1.8 0-3.2 1.4-3.2 3.2v14.5c0 1.8 1.4 3.2 3.2 3.2h32.1c1.8 0 3.2-1.4 3.2-3.2V24.9c0-1.7-1.4-3.1-3.2-3.1zm1.2 17.6c0 .7-.5 1.2-1.2 1.2H68.5c-.7 0-1.2-.5-1.2-1.2V24.9c0-.7.5-1.2 1.2-1.2h32.1c.7 0 1.2.5 1.2 1.2v14.5z"/><path d="M75 27.6h-3c-.5 0-.8.4-.8.8v8.4c0 .5.4.8.8.8.5 0 .8-.4.8-.8v-2.6h2c2.4 0 4-1.4 4-3.4 0-1.9-1.5-3.2-3.8-3.2zm2.1 3.3c0 1.1-.9 1.8-2.3 1.8h-2v-3.6h2.1c.6.1 2.2.2 2.2 1.8zm6.6-3.3H81c-.5 0-.8.4-.8.8v8.4c0 .5.4.8.8.8h2.8c3.1 0 5.3-2.1 5.3-5-.1-2.9-2.3-5-5.4-5zm0 8.4h-1.9v-6.9h1.9c2.1 0 3.6 1.4 3.6 3.5 0 2-1.5 3.4-3.6 3.4zm13.6-8.4h-5.8c-.5 0-.8.4-.8.8v8.4c0 .5.4.8.8.8.5 0 .8-.4.8-.8v-3.3h4.4c.4 0 .8-.4.8-.8s-.4-.8-.8-.8h-4.4v-2.8h5c.4 0 .8-.4.8-.8s-.3-.7-.8-.7z"/><path d="M92.9 44.4c-.6 0-1 .4-1 1v1.7c0 .4-.3.7-.7.7H56.6c-.4 0-.7-.3-.7-.7V2.7c.1-.4.4-.7.7-.7h26.6v7.5c0 .6.4 1 1 1h7.6v8.1c0 .6.4 1 1 1s1-.4 1-1V9.5c0-.7-.3-1.4-.8-1.9L86 .7c-.4-.4-1.1-.7-1.8-.7H56.6C55.2 0 54 1.2 54 2.7v44.5c0 1.5 1.2 2.7 2.7 2.7h34.6c1.5 0 2.7-1.2 2.7-2.7v-1.7c-.1-.7-.6-1.1-1.1-1.1zM91.1 8.5h-5.9V2.7l5.9 5.8z"/></g><path fill="#E9E9E9" d="M152.6 16.2c.3-1.1.5-2.2.5-3.3C153.1 6 147.5.4 140.6.4c-5.6 0-10.3 3.7-11.9 8.8-1.1-.5-2.4-.8-3.7-.8-5.2 0-9.5 4.3-9.5 9.5 0 .7.1 1.5.3 2.1-3.6 1.4-6.1 4.8-6.1 8.9 0 3.2 1.6 6.1 4.1 7.8h17.6v-8.3h-6.7l11-11.7 10.7 11.7h-6.8v8.3h14.9c2.8-2.3 4.6-5.8 4.6-9.6-.3-4.7-2.8-8.8-6.5-10.9z"/><g fill="#E9E9E9"><path d="M182.7 19.1c0 1.6 1.3 3 3 3 1.6 0 3-1.3 3-3 0-1.6-1.3-3-3-3-1.6.1-3 1.4-3 3zm3.9 0c0 .5-.4 1-1 1s-1-.4-1-1c0-.5.4-1 1-1s1 .5 1 1zm9.1 5.4c3 0 5.4-2.4 5.4-5.4s-2.4-5.4-5.4-5.4-5.4 2.4-5.4 5.4 2.4 5.4 5.4 5.4zm0-8.7c1.9 0 3.4 1.5 3.4 3.4s-1.5 3.4-3.4 3.4-3.4-1.5-3.4-3.4 1.5-3.4 3.4-3.4zm-20-2c-3 0-5.4 2.4-5.4 5.4s2.4 5.4 5.4 5.4c3 0 5.4-2.4 5.4-5.4s-2.5-5.4-5.4-5.4zm0 8.7c-1.9 0-3.4-1.5-3.4-3.4s1.5-3.4 3.4-3.4 3.4 1.5 3.4 3.4c-.1 1.9-1.6 3.4-3.4 3.4zm10 1.3c-3 0-5.4 2.4-5.4 5.4 0 3 2.4 5.4 5.4 5.4 3 0 5.4-2.4 5.4-5.4-.1-3-2.5-5.4-5.4-5.4zm0 8.7c-1.9 0-3.4-1.5-3.4-3.4s1.5-3.4 3.4-3.4 3.4 1.5 3.4 3.4c-.1 1.9-1.6 3.4-3.4 3.4zm0-18c3 0 5.4-2.4 5.4-5.4s-2.4-5.4-5.4-5.4c-3 0-5.4 2.4-5.4 5.4s2.4 5.4 5.4 5.4zm0-8.7c1.9 0 3.4 1.5 3.4 3.4s-1.5 3.4-3.4 3.4-3.4-1.5-3.4-3.4 1.5-3.4 3.4-3.4z"/><path d="M213.3 33.1c-3.3-2.3-9.3-1.5-14.2-.3 3.5-3.5 5.7-8.3 5.7-13.6 0-10.6-8.6-19.1-19.1-19.1-10.6 0-19.1 8.6-19.1 19.1 0 10.6 8.6 19.1 19.1 19.1 2.1 0 4.1-.3 5.9-1h.1c.1 0 .2-.1.4-.1.4-.2.9-.3 1.3-.5 5.1-1.9 14.9-4.7 18.8-2 1.2.9 1.8 2.2 1.7 4.2 0 .6.4 1 1 1 .5 0 1-.4 1-1 .1-2.6-.7-4.6-2.6-5.8zm-44.8-14c0-9.5 7.7-17.1 17.1-17.1 9.5 0 17.1 7.7 17.1 17.1 0 7-4.2 13-10.2 15.7-.6.2-1 .4-1.3.5-1.7.6-3.6.9-5.6.9-9.4.1-17.1-7.6-17.1-17.1z"/></g><path fill="#41B4BB" d="M229.4 31.3c.4 0 .7-.3.7-.7V15.7c0-.2.1-.3.3-.3h24.4c.2 0 .3.1.3.3v14.9c0 .4.3.7.7.7.4 0 .7-.3.7-.7V15.7c0-.9-.7-1.6-1.7-1.6h-24.4c-.9 0-1.7.7-1.7 1.6v14.9c0 .4.3.7.7.7zm29 1.6h-14.1c-.4 0-.7.3-.7.7v.4h-2.1v-.4c0-.4-.3-.7-.7-.7h-14.1c-.4 0-.7.3-.7.7v2c0 1 .8 1.7 1.8 1.7h29.5c1 0 1.8-.8 1.8-1.7v-2c0-.5-.3-.7-.7-.7zm-.6 2.6c0 .2-.2.4-.4.4h-29.5c-.2 0-.4-.2-.4-.4v-1.3h12.8c.1.6.6 1 1.2 1h2.2c.6 0 1.1-.4 1.2-1h12.8l.1 1.3zm-20.1-12.9l-.6 1.9-.6-1.9c-.1-.3-.3-.4-.6-.4h-.1c-.3 0-.5.2-.6.4l-.6 1.9-.6-1.9c-.1-.3-.3-.4-.6-.4-.4 0-.6.3-.6.5 0 .1 0 .2.1.2l1 2.8c.1.3.3.5.6.5s.5-.2.6-.4l.6-1.8.6 1.8c.1.3.3.5.6.5s.5-.2.6-.5l1-2.9s.1-.1.1-.2c0-.3-.2-.5-.5-.5-.2 0-.4.1-.4.4zm6 0l-.6 1.9-.6-1.9c-.1-.3-.3-.4-.6-.4h-.1c-.3 0-.5.2-.6.4l-.6 1.9-.6-1.9c-.1-.3-.3-.4-.6-.4-.4 0-.6.3-.6.5 0 .1 0 .2.1.2l1 2.8c.1.3.3.5.6.5s.5-.2.6-.4l.6-1.8.6 1.8c.1.3.3.5.6.5s.5-.2.6-.5l1-2.9s.1-.1.1-.2c0-.3-.2-.5-.5-.5-.1 0-.3.1-.4.4zm6.5-.4c-.2 0-.5.2-.6.4l-.6 1.9-.6-1.9c-.1-.3-.3-.4-.6-.4h-.1c-.3 0-.5.2-.6.4l-.6 1.9-.6-1.9c-.1-.3-.3-.4-.6-.4-.4 0-.6.3-.6.5 0 .1 0 .2.1.2l1 2.8c.1.3.3.5.6.5s.5-.2.6-.4l.6-1.8.6 1.8c.1.3.3.5.6.5s.5-.2.6-.5l1-2.9s.1-.1.1-.2c.3-.3 0-.5-.3-.5zm1.2 4c.4 0 .6-.3.6-.6v-.1c0-.3-.3-.6-.6-.6-.4 0-.6.3-.6.6v.1c0 .4.2.6.6.6z"/><path fill="#41B4BB" d="M242.5 51.3c-14.1 0-25.7-11.5-25.7-25.7S228.4 0 242.5 0s25.7 11.5 25.7 25.7-11.5 25.6-25.7 25.6zm0-50.5c-13.7 0-24.8 11.1-24.8 24.8s11.1 24.8 24.8 24.8 24.8-11.1 24.8-24.8S256.2.8 242.5.8z"/><path fill="#8BD3DA" d="M11.1 91.4C8.8 88.2 7.5 84.2 7.5 80c0-11 9-20 20-20 1.4 0 2.7.1 4 .4l-1.2 3.8c-.9-.2-1.9-.3-2.9-.3-8.8 0-16 7.2-16 16 0 3.2.9 6.1 2.5 8.6l3.7-3.5.3 10.6-10.4-.9 3.6-3.3zm32.5-23.3c2.5 3.3 3.9 7.4 3.9 11.9 0 11-9 20-20 20-2 0-3.9-.3-5.7-.8l1.7-3.7c1.3.3 2.6.5 4 .5 8.8 0 16-7.2 16-16 0-3.3-1-6.4-2.8-9l-3.6 3.6-.7-10.6 10.6.7-3.4 3.4z"/></svg>