<svg xmlns="http://www.w3.org/2000/svg" width="183" height="18" viewBox="0 0 183 18" fill="none"><path d="M8.28541 8.43755C9.81677 8.82578 10.9168 10.2493 10.9168 12.2983C10.9168 15.0806 8.9109 16.7198 5.52466 16.7198H0.132568V1.19058H5.74035C8.5011 1.19058 10.6364 2.22586 10.6364 5.07289C10.6364 6.79836 9.64422 7.94148 8.28541 8.43755ZM5.76191 2.78664H2.05215V7.70423H5.76191C7.63836 7.70423 8.73835 6.77679 8.73835 5.2023C8.73835 3.43369 7.35797 2.78664 5.76191 2.78664ZM2.05215 15.0806H5.50309C7.63836 15.0806 8.9756 14.0022 8.9756 12.1473C8.9756 9.96891 7.29327 9.27872 5.6325 9.27872H2.05215V15.0806Z" fill="white"></path><path d="M20.9123 11.9748V5.54739H22.8104V16.7198H20.9123V14.9296C20.4594 15.7924 19.3594 17.0433 17.1595 17.0433C14.7007 17.0433 13.5144 15.2316 13.5144 13.01V5.54739H15.3908V12.6434C15.3908 14.1963 16.1673 15.3826 17.6987 15.3826C19.6614 15.3826 20.9123 13.7434 20.9123 11.9748Z" fill="white"></path><path d="M25.2011 13.0748H27.0775C27.0991 14.6277 28.3285 15.5551 29.903 15.5551C31.1324 15.5551 32.2755 15.059 32.2755 13.8296C32.2755 12.7081 31.2618 12.1473 30.0108 11.8885C27.8109 11.4787 25.6756 10.8101 25.6756 8.54539C25.6756 6.28071 27.8324 5.22386 29.8167 5.22386C31.952 5.22386 34.1735 6.43169 34.1951 8.91206H32.3618C32.3402 7.63952 31.2187 6.71208 29.8383 6.71208C28.6952 6.71208 27.552 7.29443 27.552 8.45912C27.552 9.58067 28.9108 10.012 30.5716 10.314C32.7069 10.7022 34.152 11.8454 34.152 13.7002C34.152 16.1806 31.9736 17.0433 29.8814 17.0433C27.5305 17.0433 25.2227 15.8355 25.2011 13.0748Z" fill="white"></path><path d="M37.7397 3.28271C37.0064 3.28271 36.5319 2.80821 36.5319 2.13959C36.5319 1.57881 37.0064 1.08274 37.7397 1.08274C38.3652 1.08274 38.8397 1.57881 38.8397 2.13959C38.8397 2.80821 38.3652 3.28271 37.7397 3.28271ZM38.624 16.7198H36.7476V5.54739H38.624V16.7198Z" fill="white"></path><path d="M47.4244 5.22386C49.8832 5.22386 51.1989 7.03561 51.1989 9.25715V16.7198H49.3009V9.62381C49.3009 8.04932 48.4166 6.86306 46.8852 6.86306C44.9225 6.86306 43.5637 8.50226 43.5637 10.2924V16.7198H41.6872V5.54739H43.5637V7.33756C43.9951 6.4964 45.2029 5.22386 47.4244 5.22386Z" fill="white"></path><path d="M59.1266 5.22386C62.1246 5.22386 64.1736 7.3807 64.152 10.7022C64.152 10.9179 64.152 11.0689 64.1089 11.2846H55.4384C55.4816 13.7865 56.9482 15.4904 59.0619 15.4904C60.5286 15.4904 61.7148 14.7787 62.0599 13.3551H63.9579C63.4834 15.9433 61.456 17.0433 59.0835 17.0433C55.8266 17.0433 53.6267 14.6277 53.6267 11.1983C53.6267 7.61795 55.8266 5.22386 59.1266 5.22386ZM55.5678 9.88263H62.1462C62.0383 7.89834 60.7874 6.73365 59.1698 6.73365C57.4011 6.73365 55.9776 7.76893 55.5678 9.88263Z" fill="white"></path><path d="M65.9805 13.0748H67.8569C67.8785 14.6277 69.1079 15.5551 70.6824 15.5551C71.9118 15.5551 73.0549 15.059 73.0549 13.8296C73.0549 12.7081 72.0412 12.1473 70.7902 11.8885C68.5902 11.4787 66.455 10.8101 66.455 8.54539C66.455 6.28071 68.6118 5.22386 70.5961 5.22386C72.7314 5.22386 74.9529 6.43169 74.9745 8.91206H73.1412C73.1196 7.63952 71.998 6.71208 70.6177 6.71208C69.4745 6.71208 68.3314 7.29443 68.3314 8.45912C68.3314 9.58067 69.6902 10.012 71.351 10.314C73.4863 10.7022 74.9313 11.8454 74.9313 13.7002C74.9313 16.1806 72.7529 17.0433 70.6608 17.0433C68.3099 17.0433 66.002 15.8355 65.9805 13.0748Z" fill="white"></path><path d="M76.5229 13.0748H78.3993C78.4209 14.6277 79.6503 15.5551 81.2248 15.5551C82.4542 15.5551 83.5973 15.059 83.5973 13.8296C83.5973 12.7081 82.5836 12.1473 81.3326 11.8885C79.1326 11.4787 76.9974 10.8101 76.9974 8.54539C76.9974 6.28071 79.1542 5.22386 81.1385 5.22386C83.2738 5.22386 85.4953 6.43169 85.5169 8.91206H83.6836C83.662 7.63952 82.5404 6.71208 81.1601 6.71208C80.0169 6.71208 78.8738 7.29443 78.8738 8.45912C78.8738 9.58067 80.2326 10.012 81.8934 10.314C84.0286 10.7022 85.4737 11.8454 85.4737 13.7002C85.4737 16.1806 83.2953 17.0433 81.2032 17.0433C78.8522 17.0433 76.5444 15.8355 76.5229 13.0748Z" fill="white"></path><path d="M103.985 5.46112H102.043C101.979 3.47683 100.663 2.50625 98.8082 2.50625C97.32 2.50625 95.8102 3.45526 95.8102 5.15916C95.8102 6.79835 97.2121 7.51011 99.4768 8.00618C102.238 8.58853 103.985 10.0552 103.985 12.7081C103.985 15.7492 101.353 17.0433 98.8082 17.0433C95.7886 17.0433 93.373 15.4473 93.2867 11.8885H95.2279C95.271 14.3041 96.8886 15.4473 98.8082 15.4473C100.404 15.4473 102 14.5414 102 12.8159C102 11.3493 101.116 10.314 98.9376 9.81793C95.5514 9.04147 93.8259 7.74736 93.8259 5.24543C93.8259 2.35527 96.371 0.867052 98.7866 0.867052C101.569 0.867052 103.855 2.269 103.985 5.46112Z" fill="white"></path><path d="M105.896 11.1336C105.896 7.316 108.377 5.22386 111.288 5.22386C114.2 5.22386 116.659 7.316 116.659 11.1336C116.659 14.9728 114.2 17.0433 111.288 17.0433C108.377 17.0433 105.896 14.9728 105.896 11.1336ZM107.773 11.1336C107.773 14.0238 109.52 15.4257 111.288 15.4257C113.1 15.4257 114.782 14.0238 114.782 11.1336C114.782 8.265 113.1 6.86306 111.288 6.86306C109.52 6.86306 107.773 8.265 107.773 11.1336Z" fill="white"></path><path d="M119.17 16.7198V0.651367H121.046V16.7198H119.17Z" fill="white"></path><path d="M131.508 11.9748V5.54739H133.406V16.7198H131.508V14.9296C131.055 15.7924 129.955 17.0433 127.755 17.0433C125.296 17.0433 124.11 15.2316 124.11 13.01V5.54739H125.986V12.6434C125.986 14.1963 126.762 15.3826 128.294 15.3826C130.257 15.3826 131.508 13.7434 131.508 11.9748Z" fill="white"></path><path d="M141.251 15.2316C141.596 15.2316 142.2 15.1669 142.609 15.0375V16.5904C142.135 16.7414 141.531 16.8277 140.992 16.8277C139.007 16.8277 137.519 15.9649 137.519 13.3767V7.07874H135.319V5.54739H137.519V2.7435L139.396 1.77292V5.54739H142.264V7.07874H139.396V13.3336C139.396 14.7139 140.172 15.2316 141.251 15.2316Z" fill="white"></path><path d="M145.491 3.28271C144.758 3.28271 144.284 2.80821 144.284 2.13959C144.284 1.57881 144.758 1.08274 145.491 1.08274C146.117 1.08274 146.591 1.57881 146.591 2.13959C146.591 2.80821 146.117 3.28271 145.491 3.28271ZM146.376 16.7198H144.499V5.54739H146.376V16.7198Z" fill="white"></path><path d="M148.856 11.1336C148.856 7.316 151.336 5.22386 154.248 5.22386C157.16 5.22386 159.619 7.316 159.619 11.1336C159.619 14.9728 157.16 17.0433 154.248 17.0433C151.336 17.0433 148.856 14.9728 148.856 11.1336ZM150.733 11.1336C150.733 14.0238 152.48 15.4257 154.248 15.4257C156.06 15.4257 157.742 14.0238 157.742 11.1336C157.742 8.265 156.06 6.86306 154.248 6.86306C152.48 6.86306 150.733 8.265 150.733 11.1336Z" fill="white"></path><path d="M167.867 5.22386C170.326 5.22386 171.641 7.03561 171.641 9.25715V16.7198H169.743V9.62381C169.743 8.04932 168.859 6.86306 167.328 6.86306C165.365 6.86306 164.006 8.50226 164.006 10.2924V16.7198H162.13V5.54739H164.006V7.33756C164.438 6.4964 165.645 5.22386 167.867 5.22386Z" fill="white"></path><path d="M174.006 13.0748H175.882C175.904 14.6277 177.133 15.5551 178.708 15.5551C179.937 15.5551 181.08 15.059 181.08 13.8296C181.08 12.7081 180.067 12.1473 178.816 11.8885C176.616 11.4787 174.48 10.8101 174.48 8.54539C174.48 6.28071 176.637 5.22386 178.622 5.22386C180.757 5.22386 182.978 6.43169 183 8.91206H181.167C181.145 7.63952 180.024 6.71208 178.643 6.71208C177.5 6.71208 176.357 7.29443 176.357 8.45912C176.357 9.58067 177.716 10.012 179.377 10.314C181.512 10.7022 182.957 11.8454 182.957 13.7002C182.957 16.1806 180.778 17.0433 178.686 17.0433C176.335 17.0433 174.028 15.8355 174.006 13.0748Z" fill="white"></path></svg>