<svg width="42" height="42" xmlns="http://www.w3.org/2000/svg"><g fill="none" fill-rule="evenodd"><path fill="#FFF" d="M0 42h42V0H0z"/><path d="M40.183 21.28c0 10.483-8.497 18.98-18.98 18.98S2.222 31.764 2.222 21.28 10.72 2.3 21.202 2.3c10.484 0 18.981 8.497 18.981 18.98" fill="#FFF"/><path d="M26.453 11.992a4.038 4.038 0 11-8.077 0 4.038 4.038 0 018.077 0" fill="#F4A1A1"/><path d="M34.532 33.459c-3.276 3.372-7.854 5.473-12.915 5.473-9.935 0-18.018-8.082-18.018-18.019 0-5.062 2.101-9.64 5.474-12.915 3.247-3.155 7.67-5.103 12.544-5.103 3.256 0 6.31.873 8.948 2.39a18.147 18.147 0 016.68 6.68 17.9 17.9 0 012.39 8.948c0 4.874-1.949 9.299-5.103 12.546M21.617.876c-5.305 0-10.13 2.076-13.718 5.452-3.886 3.657-6.319 8.84-6.319 14.585 0 1.304.13 2.577.368 3.812 1.546 7.997 7.86 14.311 15.858 15.859 1.234.238 2.508.368 3.81.368 5.745 0 10.928-2.433 14.584-6.319 3.378-3.588 5.454-8.415 5.454-13.72 0-11.048-8.99-20.037-20.037-20.037" fill="#4D535B"/><path d="M22.144 8.545a3.2 3.2 0 013.195 3.197 3.2 3.2 0 01-3.195 3.196 3.2 3.2 0 01-3.197-3.196 3.2 3.2 0 013.197-3.197m0 8.412a5.22 5.22 0 005.214-5.215 5.221 5.221 0 00-5.214-5.216 5.222 5.222 0 00-5.216 5.216 5.221 5.221 0 005.216 5.215" fill="#4D535B"/><path fill="#F4A1A1" fill-rule="nonzero" d="M26.23 19.242h-9.989l-.295 2.15 2.445 1.486v7.014l-2.445.734.58 2.34h11.22l.479-1.999-2.266-1.075z"/><path d="M27.164 32.022c-.103.11-.17.11-.193.11h-9.658c-.023 0-.09 0-.19-.107-.034-.037-.116-.125-.116-.38 0-.19.041-.329.125-.424.1-.115.16-.115.181-.115h1.098a1.01 1.01 0 001.01-1.01v-8.049c0-.556-.454-1.01-1.01-1.01h-1.098c-.039 0-.1-.01-.19-.105-.034-.038-.116-.126-.116-.38 0-.19.041-.329.126-.425.1-.114.16-.114.18-.114h7.554v10.084c0 .557.452 1.01 1.01 1.01h1.094c.02 0 .08 0 .181.114.084.096.126.235.126.425 0 .252-.082.342-.114.376m1.503-2.136c-.453-.515-1.056-.799-1.696-.799h-.085v-9.612c0-.818-.665-1.482-1.482-1.482h-8.091c-.64 0-1.242.284-1.697.8-.411.469-.628 1.076-.628 1.758 0 .686.227 1.294.659 1.758.45.482 1.043.748 1.666.748h.088v6.03h-.088c-.639 0-1.241.284-1.697.799-.411.468-.628 1.077-.628 1.76 0 .686.228 1.293.66 1.757.45.483 1.042.748 1.665.748h9.658c.622 0 1.214-.265 1.667-.748.431-.462.659-1.069.659-1.757 0-.684-.218-1.293-.63-1.76" fill="#4D535B"/><path d="M38.192 22.529a18.09 18.09 0 01-3.66 10.93c3.155-3.247 5.103-7.672 5.103-12.546a17.9 17.9 0 00-2.39-8.948 20.398 20.398 0 00-6.68-6.68 17.9 17.9 0 00-8.948-2.39c-4.873 0-9.298 1.948-12.544 5.103a18.09 18.09 0 0110.928-3.66c10.03 0 18.191 8.16 18.191 18.19" fill="#DEE0E2"/></g></svg>