<svg width="42" height="42" xmlns="http://www.w3.org/2000/svg"><g fill="none" fill-rule="evenodd"><path fill="#FFF" d="M0 42h42V0H0z"/><path fill="#FFF" d="M7.124 12.059l-4.846.808v24.23L4.7 39.521l33.115-.808 2.423-2.423V13.674l-3.23-2.423z"/><path d="M25.016 24.11c0 .235-.048.455-.124.663h12.71v12.515c0 .267-.052.518-.13.758a2.499 2.499 0 001.746-2.373V23.157H25.016v.954zm13.608-12.051h-3.231l.546.546H5.625c-1.115 0-2.05.737-2.373 1.745.24-.077.492-.13.757-.13H35.1a2.506 2.506 0 012.503 2.503v4.415h1.615v-5.255l.214.214v-3.23l-.807-.808z" fill="#DEE0E2"/><path fill="#F4A1A1" d="M17.624 24.982h6.461v-5.654h-6.461z"/><path d="M14.227 9.374c.557 0 1.01-.453 1.01-1.01V7.59a2.507 2.507 0 012.503-2.504h6.86a2.507 2.507 0 012.503 2.504v.774a1.01 1.01 0 002.02 0V7.59A4.528 4.528 0 0024.6 3.067h-6.86a4.528 4.528 0 00-4.523 4.523v.774c0 .557.454 1.01 1.01 1.01m23.245 28.672a2.44 2.44 0 01-.757.13H5.625a2.506 2.506 0 01-2.504-2.503V23.157h14.111v.953c0 .441.155.843.404 1.168.104.134.224.255.358.358.325.25.727.404 1.168.404h3.924c.099 0 .192-.015.286-.03a1.922 1.922 0 001.52-1.237c.076-.207.124-.428.124-.663v-.953h14.202v12.516c0 1.114-.737 2.05-1.746 2.373zm-18.22-14.025v-3.746h3.745v3.746H19.25zm19.935-9.22c.012.103.03.203.03.308v6.03h-14.2v-.954c0-1.064-.866-1.93-1.93-1.93h-3.924c-.966 0-1.762.717-1.9 1.644-.015.095-.03.188-.03.286v.953H3.122v-6.03c0-.266.052-.517.13-.758a2.499 2.499 0 012.373-1.745h31.09c.105 0 .204.018.306.031a2.492 2.492 0 012.166 2.166zm-2.472-4.215H5.625c-1.66 0-3.111.902-3.898 2.24a4.486 4.486 0 00-.625 2.283v20.564a4.54 4.54 0 004.523 4.522h31.09c.832 0 1.611-.23 2.282-.624a4.522 4.522 0 002.24-3.898V15.11a4.528 4.528 0 00-4.522-4.523z" fill="#4D535B"/></g></svg>